<?xml version="1.0" standalone="no"?>
<!DOCTYPE svg PUBLIC "-//W3C//DTD SVG 20010904//EN"
 "http://www.w3.org/TR/2001/REC-SVG-20010904/DTD/svg10.dtd">
<svg version="1.0" xmlns="http://www.w3.org/2000/svg"
 width="1280.000000pt" height="1280.000000pt" viewBox="0 0 1280.000000 1280.000000"
 preserveAspectRatio="xMidYMid meet">
<metadata>
Created by potrace 1.14, written by Peter Selinger 2001-2017
</metadata>
<g transform="translate(0.000000,1280.000000) scale(0.100000,-0.100000)"
fill="#000000" stroke="none">
<path d="M0 6400 l0 -6400 6398 2 6397 3 0 6395 0 6395 -6397 3 -6398 2 0
-6400z m3598 4096 c511 -110 851 -480 934 -1017 10 -64 12 -243 10 -749 -3
-702 -7 -775 -53 -941 -30 -111 -126 -301 -203 -403 -57 -75 -67 -95 -63 -120
2 -17 51 -182 110 -366 117 -371 193 -623 198 -658 l4 -23 -343 0 c-189 0
-346 2 -348 4 -3 2 -58 165 -124 362 -66 197 -123 362 -128 367 -5 5 -74 4
-162 -2 -176 -13 -273 -4 -404 37 -424 133 -735 464 -831 884 -26 113 -33 333
-31 944 2 631 4 656 58 860 55 212 189 417 368 566 178 148 380 236 613 269
87 12 308 4 395 -14z m2642 -1401 l0 -1425 829 0 c545 0 832 -3 836 -10 3 -6
3 -170 -1 -365 l-7 -355 -1191 2 -1191 3 -3 1775 c-1 976 0 1781 3 1788 3 9
86 12 365 12 l360 0 0 -1425z m3449 1401 c417 -92 750 -383 880 -772 57 -169
62 -226 68 -729 6 -521 -8 -1025 -31 -1125 -102 -447 -440 -789 -891 -901
-104 -26 -305 -36 -416 -20 -365 52 -692 271 -877 586 -100 171 -138 317 -153
585 -13 228 -5 1238 11 1370 30 259 144 494 330 680 101 103 183 162 307 224
106 53 214 90 328 111 101 18 339 14 444 -9z m-6819 -5833 c0 -720 4 -1226 10
-1268 20 -147 125 -297 251 -361 234 -118 528 -30 647 194 66 124 64 88 62
1425 l-1 1207 351 0 351 0 -4 -1277 c-4 -1405 0 -1314 -66 -1512 -57 -171
-138 -306 -258 -431 -226 -238 -518 -360 -857 -360 -397 0 -751 178 -968 485
-98 140 -157 277 -204 475 -16 69 -18 169 -21 1333 -3 949 -1 1262 8 1273 9
12 72 14 355 14 l344 0 0 -1197z m3400 1125 c18 -40 49 -107 68 -148 49 -108
186 -408 239 -525 25 -55 69 -152 98 -215 30 -63 110 -239 179 -390 176 -387
279 -611 296 -640 13 -22 16 91 20 980 l5 1005 363 3 362 2 0 -1790 0 -1790
-358 0 c-330 0 -360 1 -375 18 -9 9 -56 107 -105 217 -49 110 -179 394 -287
630 -109 237 -220 478 -246 537 -27 59 -85 185 -130 280 -44 95 -95 208 -112
250 -26 64 -33 74 -41 60 -7 -11 -9 -298 -7 -822 1 -442 -1 -887 -4 -987 l-8
-183 -358 0 -359 0 0 1790 0 1790 364 0 363 0 33 -72z m3542 -1670 c2 -959 2
-1764 0 -1790 l-4 -48 -357 0 -358 0 -6 932 c-11 1557 -9 2636 6 2641 6 3 170
5 363 6 l351 1 5 -1742z"/>
<path d="M3253 9805 c-175 -38 -312 -170 -360 -346 -16 -58 -17 -126 -17 -704
1 -686 3 -721 52 -825 36 -76 131 -169 213 -208 181 -86 403 -57 547 73 61 55
103 119 134 205 l23 65 -1 655 c-1 724 -1 730 -65 851 -65 121 -201 217 -339
239 -82 12 -110 12 -187 -5z"/>
<path d="M9373 9809 c-164 -27 -317 -148 -372 -295 -36 -93 -41 -191 -40 -769
1 -619 7 -711 55 -810 49 -100 159 -196 272 -238 81 -31 242 -30 325 1 123 45
221 132 278 247 44 89 48 167 49 790 0 556 -6 671 -40 771 -49 141 -180 258
-335 299 -64 16 -112 17 -192 4z"/>
</g>
</svg>
